<svg aria-hidden="true" style="position: absolute; width: 0; height: 0; overflow: hidden;" version="1.1" xmlns="http://www.w3.org/2000/svg" xmlns:xlink="http://www.w3.org/1999/xlink">
<defs>
<symbol id="facebook" viewBox="0 0 32 32">
<path d="M16 32c8.837 0 16-7.163 16-16s-7.163-16-16-16c-8.837 0-16 7.163-16 16s7.163 16 16 16z"></path>
<path fill="#fff" style="fill: var(--color2, #fff)" d="M20.446 15.982h-2.61v9.619h-3.955v-9.619h-1.881v-3.38h1.881v-2.187c0-1.564 0.739-4.014 3.99-4.014l2.929 0.012v3.281h-2.125c-0.349 0-0.839 0.175-0.839 0.921v1.989h2.955l-0.346 3.377z"></path>
</symbol>
<symbol id="telegram" viewBox="0 0 32 32">
<path d="M32 16c0 8.837-7.163 16-16 16s-16-7.163-16-16c0-8.837 7.163-16 16-16s16 7.163 16 16z"></path>
<path fill="#fff" style="fill: var(--color2, #fff)" d="M12.867 18.375l-0.318 4.169c0.454 0 0.651-0.182 0.887-0.401l2.13-1.9 4.415 3.017c0.81 0.421 1.38 0.199 1.599-0.695l2.898-12.672 0.001-0.001c0.257-1.117-0.433-1.554-1.222-1.28l-17.032 6.086c-1.162 0.421-1.145 1.026-0.198 1.3l4.355 1.264 10.115-5.907c0.476-0.294 0.909-0.131 0.553 0.163l-8.182 6.857z"></path>
</symbol>
<symbol id="close" viewBox="0 0 32 32">
<path fill="none" stroke="#fff" style="stroke: var(--color2, #fff)" stroke-linejoin="miter" stroke-linecap="butt" stroke-miterlimit="4" stroke-width="2" d="M2.519 2l26.963 28"></path>
<path fill="none" stroke="#fff" style="stroke: var(--color2, #fff)" stroke-linejoin="miter" stroke-linecap="butt" stroke-miterlimit="4" stroke-width="2" d="M2 29.481l28-26.963"></path>
</symbol>
<symbol id="burger" viewBox="0 0 46 32">
<path fill="none" stroke="#d41443" style="stroke: var(--color3, #d41443)" stroke-linejoin="miter" stroke-linecap="butt" stroke-miterlimit="4" stroke-width="2.2857" d="M0 2.286h45.714"></path>
<path fill="none" stroke="#d41443" style="stroke: var(--color3, #d41443)" stroke-linejoin="miter" stroke-linecap="butt" stroke-miterlimit="4" stroke-width="2.2857" d="M0 16h45.714"></path>
<path fill="none" stroke="#d41443" style="stroke: var(--color3, #d41443)" stroke-linejoin="miter" stroke-linecap="butt" stroke-miterlimit="4" stroke-width="2.2857" d="M0 29.714h45.714"></path>
</symbol>
<symbol id="about_button" viewBox="0 0 26 32">
<path fill="none" stroke="#d41443" style="stroke: var(--color1, #d41443)" stroke-linejoin="round" stroke-linecap="round" stroke-miterlimit="4" stroke-width="6.4" d="M5.173 3.2l14.169 12.8-14.169 12.8"></path>
</symbol>
<symbol id="arrow-white">
<path width="7" height="10" fill="none" d="M1.403 1l4.28 4-4.28 4" stroke="#fff" stroke-width="2" stroke-linecap="round" stroke-linejoin="round"></path>
</symbol>
<symbol id="mail" viewBox="0 0 18 18">
<path d="M15 3H3c-.825 0-1.492.675-1.492 1.5l-.008 9c0 .825.675 1.5 1.5 1.5h12c.825 0 1.5-.675 1.5-1.5v-9c0-.825-.675-1.5-1.5-1.5zm-.3 3.188L9.398 9.502a.759.759 0 01-.796 0L3.3 6.188a.637.637 0 11.675-1.08L9 8.25l5.025-3.143a.637.637 0 11.675 1.08z"></path>
</symbol>
<symbol id="phone" viewBox="0 0 18 18">
<path d="M13.996 11.123l-1.838-.21a1.44 1.44 0 00-1.187.412l-1.332 1.332a10.888 10.888 0 01-4.769-4.77L6.21 6.55a1.44 1.44 0 00.412-1.187l-.21-1.824a1.448 1.448 0 00-1.44-1.28H3.72c-.818 0-1.498.68-1.448 1.497.384 6.18 5.327 11.116 11.5 11.5.817.05 1.498-.63 1.498-1.448v-1.252a1.434 1.434 0 00-1.274-1.432z"></path>
</symbol>
<symbol id="person" viewBox="0 0 18 18">
<path d="M9 9a3 3 0 100-6 3 3 0 100 6zm0 1.5c-2.003 0-6 1.005-6 3v.75c0 .412.337.75.75.75h10.5c.412 0 .75-.338.75-.75v-.75c0-1.995-3.998-3-6-3z"></path>
</symbol>
</defs>
</svg>
